<svg xmlns="http://www.w3.org/2000/svg" width="82" height="29" viewBox="0 0 82 29" version="1.1"><g stroke="none" stroke-width="1" fill="#FFFFFF"><path d="M31 19.5L31 10.3C31 6.9 27.4 5.8 24.5 5.8 20.9 5.8 18.5 8 18.5 9.8 18.5 10.5 19.1 11.1 19.8 11.1 20.5 11.1 20.9 10.6 21.4 10.1 21.4 10.1 21.9 9.6 21.9 9.6 22.6 9 23.5 8.6 24.6 8.6 26.1 8.6 27.7 8.9 27.7 10.9 27.7 12.1 27.1 12.4 26.7 12.6 26.2 12.7 25.5 12.8 24.8 12.9 24.8 12.9 22.2 13.3 22.2 13.3 19 14 17.8 15.2 17.8 18 17.8 20.9 19.4 22.6 22.2 22.6 26.8 22.6 27.8 19.7 27.8 19.7L27.8 20.4C27.9 22 28.4 22.5 29.7 22.5 30.2 22.5 31.1 22.3 31.1 21.3L31.1 20.8 31 19.5 31 19.5 31 19.5ZM27.8 16C27.8 18.5 26.1 20.2 23.7 20.2 22 20.2 21 19.2 21 17.8 21 16.1 22.1 15.5 23.4 15.2L23.3 15.2 24.3 15C25 14.8 26 14.6 27.1 14.1L27.8 13.8 27.8 16 27.8 16 27.8 16ZM42.8 6.3C38.6 6.3 37.8 9.3 37.8 9.3 37.8 9.3 37.6 8.1 37.6 8.1 37.5 7 37.1 6.5 36.1 6.5 34.9 6.5 34.4 7.1 34.4 8.5L34.4 26.6C34.4 28.4 35.3 28.6 36.1 28.6 36.9 28.6 37.7 28.4 37.7 26.6L37.7 19.7C37.7 19.7 38.7 22.6 42.9 22.6 46.5 22.6 49 19.2 49 14.4 49 9.5 46.5 6.3 42.8 6.3M41.7 19.8C39.2 19.8 37.7 17.8 37.7 14.4 37.7 11 39.1 9.1 41.6 9.1 43.1 9.1 45.7 9.8 45.7 14.5 45.7 17.8 44.2 19.8 41.7 19.8M57.4 20.3L56.7 20.3C55.3 20.3 55.2 19.4 55.2 18.7L55.2 9.2 56.8 9.2C57.9 9.2 58 8.7 58 8.2 58 7.8 57.9 7.3 56.8 7.3L55.1 7.3 55.1 4.5C55.1 3 54.4 2.8 53.6 2.8 52.8 2.8 52.1 3 52.1 4.5L52.1 18.5C52.1 21.5 52.6 22.5 56 22.5 58.1 22.5 58.3 21.8 58.3 21.2 58.3 20.6 58 20.3 57.4 20.3M13 0.8C12.2 0.8 11.4 1 11.4 2.7L11.4 9.1C11.4 9.1 10.1 6.2 6.2 6.2 2.6 6.2 0.1 9.6 0.1 14.5 0.1 19.3 2.6 22.5 6.3 22.5 10.1 22.5 11.5 19.6 11.5 19.6L11.5 20.9C11.5 22 12 22.5 13 22.5 14.2 22.5 14.7 21.9 14.7 20.5L14.7 2.7C14.7 1 13.9 0.8 13 0.8M7.4 19.7C4.9 19.7 3.5 17.8 3.5 14.3 3.5 11.1 5 9.1 7.4 9.1 9.9 9.1 11.4 11 11.4 14.3 11.4 18.8 9.2 19.7 7.4 19.7M72.1 20.6C72.6 22.2 73.4 22.5 74.6 22.5 75.6 22.5 76.4 22.2 77 20.6 77 20.6 81 9.2 81 9.2 81.2 8.8 81.3 8.4 81.3 8.2 81.3 7.2 80.6 6.7 79.6 6.7 79.1 6.7 78.4 6.9 77.9 8.3L74.6 19.8 71.3 8.4C70.9 7 70.4 6.7 69.6 6.7 68.6 6.7 67.9 7.4 67.9 8.4 67.9 8.6 67.9 8.9 68.1 9.3 68.1 9.3 72.1 20.6 72.1 20.6M62.9 6.1C62 6.1 62.1 6.6 62.4 7.5 63.2 12.4 63.2 17.4 62.2 22.3 62 23.3 62.7 24 63.7 24 64.6 24 65.6 23.1 65.7 22.2 66.1 17.3 65.7 12.4 64.3 7.6 64.1 6.6 63.9 6 62.9 6.1M63.6 3.1C63.9 2.7 64 2.3 64 1.8 64 1.3 63.8 0.9 63.4 0.5 63.1 0.2 62.6 0 62.1 0.1 61.7 0.1 61.3 0.3 61 0.7 60.6 1 60.5 1.5 60.5 2 60.5 2.4 60.7 2.9 61.1 3.2 61.5 3.5 61.9 3.7 62.4 3.7 62.8 3.6 63.3 3.4 63.6 3.1M78.1 20.6L79.6 20.6 79.6 20.8 78.9 20.8 78.9 22.5 78.7 22.5 78.7 20.8 78.1 20.8 78.1 20.6M80 20.6L80.3 20.6 80.9 22.3 81.6 20.6 81.9 20.6 81.9 22.5 81.7 22.5 81.7 20.9 81.7 20.9 81 22.5 80.9 22.5 80.2 20.9 80.2 20.9 80.2 22.5 80 22.5 80 20.6"/></g></svg>
